<?xml version="1.0" standalone="no"?>
<!DOCTYPE svg PUBLIC "-//W3C//DTD SVG 20010904//EN"
 "http://www.w3.org/TR/2001/REC-SVG-20010904/DTD/svg10.dtd">
<svg version="1.0" xmlns="http://www.w3.org/2000/svg"
 width="500.000000pt" height="500.000000pt" viewBox="0 0 500.000000 500.000000"
 preserveAspectRatio="xMidYMid meet">

<g transform="translate(0.000000,500.000000) scale(0.100000,-0.100000)"
fill="#000000" stroke="none">
<path d="M2210 4669 c-69 -10 -143 -22 -165 -27 -22 -6 -65 -15 -95 -21 -30
-7 -64 -16 -75 -21 -11 -5 -45 -16 -75 -25 -30 -9 -73 -25 -95 -36 -22 -10
-44 -19 -48 -19 -26 0 -322 -160 -377 -205 -8 -7 -58 -55 -110 -107 -148 -147
-239 -299 -294 -488 l-25 -84 30 -71 c16 -39 48 -104 69 -145 22 -41 48 -91
57 -110 10 -19 20 -37 23 -40 3 -3 17 -21 31 -40 34 -45 164 -172 201 -195 8
-5 40 -26 69 -46 30 -19 70 -44 89 -55 19 -10 37 -21 40 -24 3 -3 24 -14 47
-25 46 -21 53 -38 26 -54 -16 -9 -15 -10 7 -11 15 0 31 5 38 12 12 12 14 12
112 -36 30 -14 58 -26 62 -26 4 0 32 -11 62 -25 30 -14 59 -25 65 -25 6 0 35
-11 65 -25 30 -14 59 -25 65 -25 6 0 35 -11 65 -25 30 -14 59 -25 64 -25 18 0
331 -129 378 -156 58 -32 143 -102 196 -160 302 -327 351 -761 136 -1203 -140
-287 -321 -484 -561 -610 -43 -23 -84 -41 -92 -41 -8 0 -15 -3 -15 -8 0 -8
-69 -29 -128 -39 -18 -3 -35 -9 -38 -14 -3 -5 -22 -9 -42 -9 l-37 -1 50 -18
c142 -51 559 -82 730 -54 39 7 108 17 155 23 122 17 231 62 355 149 224 156
374 354 455 601 36 110 48 199 55 413 6 188 -12 360 -46 434 -10 24 -19 48
-19 55 0 25 -71 157 -124 232 -111 154 -261 276 -449 365 -48 22 -93 41 -100
41 -7 0 -17 4 -22 8 -24 21 -255 77 -399 97 -66 9 -128 20 -137 26 -10 5 -33
9 -51 10 -18 0 -71 9 -118 20 -47 11 -105 24 -130 29 -48 9 -156 36 -205 50
-16 5 -55 16 -85 23 -30 8 -82 24 -115 36 -32 11 -65 21 -72 21 -7 0 -37 11
-67 25 -30 14 -60 25 -66 25 -7 0 -29 9 -49 19 -20 10 -61 31 -92 45 -132 61
-256 166 -277 233 -6 18 -7 33 -2 33 4 0 27 -19 51 -41 40 -38 141 -109 155
-109 3 0 29 -11 57 -23 29 -13 79 -32 112 -42 33 -10 78 -23 100 -30 22 -7 67
-18 100 -25 33 -6 101 -21 150 -31 50 -11 122 -24 160 -30 39 -5 95 -14 125
-20 30 -5 102 -16 160 -24 58 -8 134 -19 170 -24 36 -6 115 -17 175 -25 136
-19 209 -31 305 -52 41 -9 93 -19 115 -23 55 -10 200 -54 315 -96 119 -43 387
-189 398 -217 2 -4 10 -8 17 -8 7 0 53 -39 102 -87 81 -80 142 -159 196 -253
108 -191 151 -490 106 -745 -28 -162 -42 -226 -50 -231 -5 -3 -9 -15 -9 -28 0
-13 -9 -49 -21 -82 -44 -126 -45 -125 19 -59 104 110 161 184 246 320 57 91
126 224 126 241 0 6 6 17 14 23 8 7 18 27 22 44 3 18 10 37 15 42 4 6 19 44
32 85 24 74 24 76 8 150 -9 41 -19 80 -22 85 -4 6 -12 28 -19 50 -10 34 -30
80 -70 165 -46 98 -158 255 -246 345 -85 86 -134 126 -258 207 -45 30 -201
107 -256 127 -19 7 -44 17 -55 21 -11 5 -67 21 -125 35 -99 25 -126 27 -470
36 -201 5 -387 14 -415 19 -27 5 -88 14 -134 20 -85 11 -152 24 -206 40 -16 5
-59 16 -95 25 -36 9 -74 20 -85 25 -11 5 -45 17 -75 28 -121 44 -250 116 -300
167 -20 21 -28 35 -19 35 13 0 92 -21 264 -68 219 -61 417 -98 696 -131 119
-15 520 -16 614 -2 148 22 380 9 535 -29 123 -30 246 -88 362 -168 125 -86
287 -289 360 -451 40 -89 98 -260 98 -291 1 -19 3 -21 9 -10 17 30 34 249 28
367 -5 114 -38 351 -57 423 -40 143 -73 251 -90 287 -11 24 -20 47 -20 51 0 8
-141 112 -170 125 -8 4 -33 18 -55 32 -22 14 -47 28 -55 31 -8 4 -37 16 -65
29 -147 67 -315 103 -520 111 -215 9 -464 -27 -695 -101 -25 -7 -79 -18 -120
-24 -41 -5 -115 -15 -165 -22 -115 -15 -316 -16 -425 -1 -47 7 -125 17 -175
22 -49 6 -112 17 -140 25 -27 7 -84 22 -125 31 -41 9 -82 20 -90 25 -8 4 -40
14 -70 23 -71 21 -155 62 -143 69 6 4 37 2 69 -4 57 -10 101 -17 244 -38 36
-5 148 -15 250 -21 155 -10 214 -9 368 4 101 9 200 20 220 26 21 5 73 18 117
29 81 19 154 46 235 86 62 31 220 90 305 114 298 84 629 62 868 -60 31 -16 57
-26 57 -23 0 18 -158 192 -272 300 -62 59 -223 184 -237 184 -6 0 -14 6 -18
13 -16 25 -347 207 -378 207 -3 0 -24 9 -48 19 -23 10 -67 26 -97 35 -30 9
-64 21 -75 25 -11 5 -54 16 -95 25 -41 9 -93 21 -115 26 -172 41 -496 50 -705
19z"/>
<path d="M761 3581 c-70 -37 -212 -204 -251 -294 -6 -12 -14 -29 -20 -37 -18
-28 -87 -176 -93 -201 -5 -21 -4 -22 6 -6 109 171 216 307 239 307 11 0 -1
-44 -13 -48 -5 -2 -9 -11 -10 -20 0 -9 -9 -30 -20 -47 -10 -16 -24 -41 -29
-55 -6 -14 -23 -50 -37 -80 -52 -112 -62 -136 -86 -200 -22 -57 -58 -175 -87
-280 -38 -138 -47 -324 -25 -478 26 -178 98 -421 160 -542 7 -14 28 -56 46
-95 50 -103 193 -331 226 -360 6 -5 33 -37 61 -70 173 -210 433 -416 683 -541
213 -107 300 -128 435 -105 98 17 252 70 317 109 21 12 42 22 48 22 5 0 9 4 9
9 0 5 9 12 19 16 27 8 130 111 170 168 18 26 35 63 38 81 5 32 3 34 -32 46
-21 7 -54 10 -74 6 -91 -15 -140 -26 -196 -44 -33 -11 -87 -27 -120 -37 -33
-9 -80 -24 -105 -32 -189 -64 -359 -77 -422 -32 -60 43 -98 136 -98 242 0 61
9 53 -122 110 -92 41 -108 90 -53 163 l24 31 -44 -5 c-59 -6 -113 5 -124 26
-5 10 -5 45 0 87 22 167 22 177 8 186 -8 5 -23 9 -35 9 -44 0 -150 43 -181 73
-45 43 -50 80 -20 155 14 33 37 110 52 169 14 59 30 125 36 147 6 21 11 91 11
155 1 134 -9 161 -106 316 -31 49 -59 101 -63 115 -3 14 -12 34 -19 45 -12 19
-24 57 -62 200 -12 46 -16 111 -16 275 -1 196 8 285 31 347 7 18 -16 15 -56
-6z"/>
<path d="M1446 2801 c-4 -5 3 -7 14 -4 23 6 26 13 6 13 -8 0 -17 -4 -20 -9z"/>
<path d="M1385 2771 c-100 -44 -145 -67 -149 -77 -5 -13 23 -74 35 -74 4 0 10
8 13 18 7 21 101 121 131 139 29 17 16 15 -30 -6z"/>
<path d="M1800 2488 c-83 -114 -209 -187 -350 -203 -85 -10 -86 -11 -89 -57
-1 -23 -4 -45 -7 -50 -9 -14 7 -9 43 13 21 13 42 19 56 15 15 -4 33 4 59 24
40 33 68 39 68 15 0 -8 4 -15 8 -15 17 0 203 216 231 268 17 32 9 27 -19 -10z"/>
<path d="M4005 1398 c-2 -7 -6 -40 -9 -73 -4 -33 -13 -85 -22 -115 -8 -30 -22
-79 -30 -109 -8 -29 -20 -65 -28 -80 -7 -14 -29 -60 -49 -101 -31 -65 -85
-148 -157 -242 -12 -16 -20 -28 -17 -28 5 0 149 106 209 155 21 17 38 38 38
47 0 10 9 41 19 70 11 29 27 98 36 153 18 110 32 335 21 335 -4 0 -8 -6 -11
-12z"/>
</g>
</svg>
