<?xml version="1.0" standalone="no"?>
<!DOCTYPE svg PUBLIC "-//W3C//DTD SVG 20010904//EN"
 "http://www.w3.org/TR/2001/REC-SVG-20010904/DTD/svg10.dtd">
<svg version="1.0" xmlns="http://www.w3.org/2000/svg"
 width="500.000000pt" height="500.000000pt" viewBox="0 0 500.000000 500.000000"
 preserveAspectRatio="xMidYMid meet">

<g transform="translate(0.000000,500.000000) scale(0.100000,-0.100000)"
fill="#000000" stroke="none">
<path d="M2227 4438 c-22 -129 -84 -339 -140 -479 -56 -140 -331 -704 -468
-960 -143 -268 -181 -389 -182 -589 0 -90 5 -132 22 -195 37 -132 74 -194 188
-318 164 -176 250 -309 305 -473 19 -58 23 -89 22 -194 -1 -151 -12 -187 -113
-364 -129 -227 -142 -268 -116 -369 12 -47 59 -147 69 -147 2 0 -5 24 -15 52
-44 127 -11 258 109 436 55 82 102 137 170 200 93 85 94 86 87 52 -21 -101
-99 -200 -188 -241 -26 -12 -35 -19 -22 -19 38 0 140 57 181 102 45 49 82 135
91 213 5 41 15 60 57 110 61 71 135 188 169 265 32 71 57 185 57 252 0 53 -29
198 -49 252 -11 28 -11 28 16 22 102 -22 142 -27 187 -21 132 18 219 80 307
218 58 91 204 376 196 384 -3 2 -32 -46 -65 -109 -33 -62 -75 -140 -93 -173
-48 -84 -160 -195 -234 -231 -53 -26 -71 -29 -155 -29 -92 0 -97 1 -150 35
-30 19 -107 78 -170 129 -196 162 -241 193 -409 286 l-162 90 6 45 c14 108
102 401 122 407 6 2 19 -53 32 -131 27 -167 36 -193 72 -211 42 -22 71 -18
117 16 23 17 42 31 42 32 0 1 -30 2 -66 2 -61 0 -68 2 -94 32 -16 18 -32 49
-35 70 -4 21 -18 84 -31 141 l-25 102 79 208 c90 233 160 443 203 607 34 132
40 138 206 222 108 55 128 73 78 73 -31 0 -63 -14 -153 -68 -41 -24 -76 -41
-79 -38 -3 3 2 45 10 93 21 117 40 278 35 293 -2 7 -11 -30 -21 -82z m-479
-1951 c6 -7 25 -57 42 -112 47 -146 84 -236 150 -365 109 -216 195 -450 221
-605 14 -84 12 -93 -57 -200 -24 -39 -25 -39 -20 -10 39 209 19 370 -66 539
-17 33 -64 109 -104 168 -85 124 -114 179 -144 269 -38 111 -65 329 -41 329 5
0 13 -6 19 -13z m378 -308 c115 -177 176 -394 154 -547 -5 -37 -17 -92 -27
-122 l-18 -55 -7 114 c-9 170 -33 285 -103 498 -34 106 -58 190 -53 187 6 -4
30 -37 54 -75z m-72 -154 c72 -146 124 -292 132 -375 4 -48 -1 -36 -45 93 -28
81 -76 203 -107 270 -31 67 -63 138 -70 157 l-15 35 20 -25 c12 -14 50 -83 85
-155z"/>
<path d="M1520 4320 c-6 -11 -8 -20 -6 -20 3 0 10 9 16 20 6 11 8 20 6 20 -3
0 -10 -9 -16 -20z"/>
<path d="M1467 4228 c-148 -267 -296 -656 -385 -1013 -44 -177 -62 -298 -62
-425 0 -138 -35 -60 -65 145 -43 294 17 692 141 938 14 26 22 47 19 47 -11 0
-106 -203 -139 -298 -66 -191 -81 -283 -80 -502 0 -177 3 -204 27 -292 14 -53
46 -146 71 -205 25 -59 52 -139 61 -178 33 -147 95 -312 163 -435 45 -83 165
-261 192 -285 11 -10 -9 25 -43 76 -79 118 -166 288 -206 403 -31 88 -52 166
-45 166 2 0 38 -53 80 -117 99 -153 202 -290 408 -547 93 -115 175 -225 183
-245 10 -24 14 -61 11 -124 -3 -76 -1 -84 9 -60 7 15 12 54 13 85 0 115 -69
245 -240 448 -66 79 -335 450 -398 550 -30 47 -68 112 -85 145 l-32 60 0 230
c0 238 5 282 52 490 51 230 162 526 309 833 45 94 81 172 79 172 -2 0 -19 -28
-38 -62z"/>
<path d="M2586 3950 c-62 -193 -218 -329 -393 -342 -53 -4 -23 -18 46 -21 55
-3 65 -7 77 -28 l13 -24 1 26 c0 34 29 47 48 22 7 -10 22 -29 33 -43 l19 -25
-11 33 c-14 42 -5 51 24 25 34 -31 54 -39 31 -12 -30 33 -47 69 -34 69 5 0 10
-4 10 -8 0 -5 24 -21 53 -36 l52 -28 -33 27 c-61 50 -68 101 -9 65 18 -11 41
-20 52 -20 16 0 14 4 -11 19 -39 24 -49 40 -35 54 8 8 21 7 49 -2 20 -8 44
-16 52 -19 8 -3 -3 11 -25 30 l-40 36 50 -5 50 -4 -33 17 c-24 12 -32 23 -30
38 2 15 9 20 23 17 35 -7 106 -4 115 5 5 5 -10 8 -35 6 -34 -3 -48 1 -64 17
-29 29 -21 38 42 47 28 4 43 9 32 11 -11 3 -35 9 -52 14 -31 10 -33 14 -33 55
0 24 -3 44 -8 44 -4 0 -16 -27 -26 -60z"/>
<path d="M3191 3735 c-1 -12 3 -25 8 -30 11 -12 234 -421 288 -530 32 -64 143
-328 194 -464 5 -13 12 -22 14 -19 7 7 -167 432 -229 558 -50 101 -238 449
-265 490 -8 12 -10 12 -10 -5z"/>
<path d="M3106 3715 c-10 -27 -7 -45 7 -45 17 0 312 -563 344 -655 l13 -40 -4
35 c-3 19 -76 177 -163 350 -188 376 -188 377 -197 355z"/>
<path d="M3390 3486 c0 -23 66 -171 99 -221 90 -139 164 -281 224 -431 94
-230 109 -265 115 -260 4 5 -66 182 -161 405 -17 41 -64 131 -105 200 -41 69
-96 168 -123 220 -27 52 -49 91 -49 87z"/>
<path d="M3070 3406 c0 -8 -3 -23 -6 -33 -5 -15 -4 -15 5 -3 5 8 12 12 14 10
3 -3 21 -48 42 -100 48 -121 136 -298 168 -336 13 -16 32 -42 41 -59 l16 -30
-6 30 c-4 17 -16 48 -27 70 -11 22 -51 117 -88 210 -38 94 -68 167 -69 162 0
-11 77 -233 90 -258 7 -11 9 -23 6 -26 -7 -7 -119 228 -148 311 -21 62 -38 84
-38 52z"/>
<path d="M3141 3390 c0 -8 4 -24 9 -35 5 -13 9 -14 9 -5 0 8 -4 24 -9 35 -5
13 -9 14 -9 5z"/>
<path d="M3061 3104 c0 -11 3 -14 6 -6 3 7 2 16 -1 19 -3 4 -6 -2 -5 -13z"/>
<path d="M3070 3073 c0 -19 46 -143 85 -224 19 -41 32 -60 28 -44 -3 17 -17
53 -31 80 -14 28 -38 84 -53 125 -15 41 -28 70 -29 63z"/>
<path d="M2394 3009 c-10 -12 -39 -30 -64 -41 -52 -22 -80 -45 -80 -65 0 -10
10 -7 33 10 17 13 51 34 73 47 23 12 47 33 53 46 13 30 10 30 -15 3z"/>
<path d="M3471 2954 c0 -11 3 -14 6 -6 3 7 2 16 -1 19 -3 4 -6 -2 -5 -13z"/>
<path d="M3481 2914 c0 -11 3 -14 6 -6 3 7 2 16 -1 19 -3 4 -6 -2 -5 -13z"/>
<path d="M3501 2844 c0 -11 3 -14 6 -6 3 7 2 16 -1 19 -3 4 -6 -2 -5 -13z"/>
<path d="M2660 2815 c-18 -14 -50 -28 -69 -31 -45 -8 -132 -58 -204 -117 -57
-47 -146 -93 -196 -103 -31 -6 -31 -7 -46 -96 -6 -36 -5 -38 23 -38 15 0 34
-6 42 -12 12 -11 12 -10 2 3 -10 13 -9 19 3 29 8 7 15 18 15 25 0 7 30 25 68
41 83 35 124 61 182 114 51 47 39 42 -37 -17 -61 -48 -138 -87 -153 -78 -19
12 -10 23 26 35 20 7 60 34 90 61 62 56 111 84 116 68 2 -7 18 -2 40 12 20 13
54 34 75 47 32 19 70 69 60 79 -2 1 -19 -8 -37 -22z"/>
<path d="M3511 2804 c0 -11 3 -14 6 -6 3 7 2 16 -1 19 -3 4 -6 -2 -5 -13z"/>
<path d="M3371 2754 c0 -11 3 -14 6 -6 3 7 2 16 -1 19 -3 4 -6 -2 -5 -13z"/>
<path d="M3531 2734 c0 -11 3 -14 6 -6 3 7 2 16 -1 19 -3 4 -6 -2 -5 -13z"/>
<path d="M3381 2714 c0 -11 3 -14 6 -6 3 7 2 16 -1 19 -3 4 -6 -2 -5 -13z"/>
<path d="M3541 2694 c0 -11 3 -14 6 -6 3 7 2 16 -1 19 -3 4 -6 -2 -5 -13z"/>
<path d="M3401 2644 c0 -11 3 -14 6 -6 3 7 2 16 -1 19 -3 4 -6 -2 -5 -13z"/>
<path d="M2631 2517 c-13 -21 -12 -21 5 -5 10 10 16 20 13 22 -3 3 -11 -5 -18
-17z"/>
<path d="M3809 2499 c-7 -18 -70 -119 -141 -226 -70 -106 -126 -193 -124 -193
8 0 169 224 215 298 50 82 77 139 69 148 -3 2 -11 -10 -19 -27z"/>
<path d="M3191 2474 c0 -11 3 -14 6 -6 3 7 2 16 -1 19 -3 4 -6 -2 -5 -13z"/>
<path d="M2564 2448 l-19 -23 23 19 c21 18 27 26 19 26 -2 0 -12 -10 -23 -22z"/>
<path d="M3167 2399 c-10 -27 -52 -100 -94 -162 -42 -62 -100 -147 -129 -191
-50 -74 -103 -200 -90 -213 3 -4 6 0 6 8 0 32 65 147 156 277 97 138 141 215
164 285 18 57 7 54 -13 -4z"/>
<path d="M2480 2400 c-8 -5 -10 -10 -5 -10 6 0 17 5 25 10 8 5 11 10 5 10 -5
0 -17 -5 -25 -10z"/>
<path d="M2280 2390 c-13 -8 -12 -10 3 -10 9 0 17 5 17 10 0 12 -1 12 -20 0z"/>
<path d="M2338 2373 c17 -2 47 -2 65 0 17 2 3 4 -33 4 -36 0 -50 -2 -32 -4z"/>
<path d="M3509 2043 c-13 -16 -12 -17 4 -4 16 13 21 21 13 21 -2 0 -10 -8 -17
-17z"/>
<path d="M3427 1943 c-72 -87 -127 -170 -151 -227 -29 -69 -16 -62 25 14 42
77 106 172 166 248 59 73 28 46 -40 -35z"/>
<path d="M1430 1696 c0 -2 8 -10 18 -17 15 -13 16 -12 3 4 -13 16 -21 21 -21
13z"/>
<path d="M3260 1614 c-1 -24 32 -114 111 -299 45 -107 84 -194 85 -192 4 4
-66 181 -106 272 -13 28 -37 91 -56 140 -18 50 -33 85 -34 79z"/>
</g>
</svg>
